<?xml version="1.0" encoding="utf-8"?>
<svg viewBox="100 50 100 50" width="100px" height="50px" xmlns="http://www.w3.org/2000/svg" xmlns:bx="https://boxy-svg.com">
  <g transform="matrix(1, 0, 0, 1, 1.827278, -3.177589)">
    <path d="M 195 298 m -6.284 0 a 6.284 6.284 0 1 0 12.568 0 a 6.284 6.284 0 1 0 -12.568 0 Z M 195 298 m -3.77 0 a 3.77 3.77 0 0 1 7.54 0 a 3.77 3.77 0 0 1 -7.54 0 Z" transform="matrix(-0.629198, 0.777245, -0.777245, -0.629198, 465.908755, 129.655506)" bx:shape="ring 195 298 3.77 3.77 6.284 6.284 1@34bb3746"/>
    <path d="M 110.081 64.988 L 123.383 64.988 L 123.383 84.511 L 124.282 84.433 L 124.253 83.238 L 187.729 83.238 L 187.729 86.64 L 185.834 86.718 L 185.838 93.358 L 182.638 93.358 C 182.64 93.291 182.641 93.224 182.641 93.157 C 182.641 89.498 179.586 86.531 175.818 86.531 C 172.05 86.531 168.995 89.498 168.995 93.157 C 168.995 93.224 168.996 93.292 168.998 93.359 L 166.56 93.359 C 166.563 93.271 166.565 93.183 166.565 93.094 C 166.565 89.434 163.511 86.468 159.743 86.468 C 155.975 86.468 152.92 89.434 152.92 93.094 C 152.92 93.183 152.922 93.272 152.925 93.36 L 118.604 93.361 C 118.479 89.684 115.407 86.741 111.638 86.741 C 107.869 86.741 104.797 89.684 104.672 93.361 L 101.474 93.361 L 101.474 88.994 L 102.452 88.987 L 102.452 78.472 L 110.081 64.988 Z M 103.408 78.597 L 118.333 77.187 L 118.333 65.993 L 110.207 65.993 L 103.408 78.597 Z M 115.662 78.709 L 115.662 78.903 C 115.662 79.057 115.786 79.181 115.94 79.181 L 118.022 79.181 C 118.176 79.181 118.3 79.057 118.3 78.903 L 118.3 78.709 C 118.3 78.555 118.176 78.431 118.022 78.431 L 115.94 78.431 C 115.786 78.431 115.662 78.555 115.662 78.709 Z M 103.051 80.875 C 103.049 80.92 103.047 80.965 103.047 81.01 C 103.047 81.056 103.049 81.101 103.051 81.146 L 103.051 82.571 L 104.101 82.571 C 104.131 82.575 104.162 82.576 104.194 82.576 C 104.827 82.576 105.34 81.875 105.34 81.01 C 105.34 80.145 104.827 79.445 104.194 79.445 C 104.174 79.445 104.155 79.445 104.135 79.447 L 104.135 79.431 L 103.051 79.431 L 103.051 80.875 Z" style="fill: rgb(25, 82, 206);"/>
    <path d="M 195 298 m -6.284 0 a 6.284 6.284 0 1 0 12.568 0 a 6.284 6.284 0 1 0 -12.568 0 Z M 195 298 m -3.77 0 a 3.77 3.77 0 0 1 7.54 0 a 3.77 3.77 0 0 1 -7.54 0 Z" transform="matrix(-0.629198, 0.777245, -0.777245, -0.629198, 514.055575, 129.523334)" bx:shape="ring 195 298 3.77 3.77 6.284 6.284 1@34bb3746"/>
    <path d="M 195 298 m -6.284 0 a 6.284 6.284 0 1 0 12.568 0 a 6.284 6.284 0 1 0 -12.568 0 Z M 195 298 m -3.77 0 a 3.77 3.77 0 0 1 7.54 0 a 3.77 3.77 0 0 1 -7.54 0 Z" transform="matrix(-0.629198, 0.777245, -0.777245, -0.629198, 530.130282, 129.523334)" bx:shape="ring 195 298 3.77 3.77 6.284 6.284 1@34bb3746"/>
    <path d="M 133.65 59.104 L 139.19 59.104 L 139.202 57.568 L 146.12 57.54 L 146.073 59.134 L 174.829 59.089 L 174.775 57.464 L 181.887 57.574 L 181.989 59.098 L 185.836 59.104 C 190.942 59.104 195.083 63.115 195.083 68.062 L 195.083 73.215 C 195.083 78.162 190.942 82.173 185.836 82.173 L 133.65 82.173 C 128.543 82.173 124.403 78.162 124.403 73.215 L 124.403 68.062 C 124.403 63.115 128.543 59.104 133.65 59.104 Z M 125.163 68.349 L 125.163 73.174 C 125.163 77.805 129.213 81.56 134.21 81.56 L 185.275 81.56 C 190.272 81.56 194.323 77.805 194.323 73.174 L 194.323 68.349 C 194.323 63.718 190.272 59.963 185.275 59.963 L 139.021 59.963 L 134.21 59.963 C 129.213 59.963 125.163 63.718 125.163 68.349 Z" style="fill: rgb(141, 140, 140);"/>
  </g>
  <rect x="144.877" y="55.673" width="0.085" height="0.085" style="fill: rgb(216, 216, 216);"/>
</svg>