<?xml version="1.0" encoding="utf-8"?>
<svg viewBox="100 50 100 50" width="100px" height="50px" xmlns="http://www.w3.org/2000/svg" xmlns:bx="https://boxy-svg.com">
  <defs>
    <radialGradient id="gradient-1" gradientUnits="userSpaceOnUse" cx="160.389" cy="67.573" r="34.726" gradientTransform="matrix(0.849239, -0.000254, 0.00218, 0.071767, 15.995193, 72.593945)">
      <stop offset="0" style="stop-color: rgba(255, 216, 160, 0.37);"/>
      <stop offset="1" style="stop-color: rgba(185, 121, 82, 0.79)"/>
    </radialGradient>
  </defs>
  <g transform="matrix(1, 0, 0, 1, 9.006819, 0)">
    <path d="M 195 298 m -6.284 0 a 6.284 6.284 0 1 0 12.568 0 a 6.284 6.284 0 1 0 -12.568 0 Z M 195 298 m -3.77 0 a 3.77 3.77 0 0 1 7.54 0 a 3.77 3.77 0 0 1 -7.54 0 Z" transform="matrix(-0.629198, 0.777245, -0.777245, -0.629198, 467.736086, 126.477916)" bx:shape="ring 195 298 3.77 3.77 6.284 6.284 1@34bb3746"/>
    <path d="M 111.908 61.81 L 125.21 61.81 L 125.21 81.333 L 126.109 81.255 L 126.08 80.06 L 172.979 80.06 L 173.055 82.883 L 171.139 82.852 C 171.139 82.852 171.227 90.165 171.229 90.232 L 168.387 90.181 C 168.39 90.093 168.392 90.005 168.392 89.916 C 168.392 86.256 165.338 83.29 161.57 83.29 C 157.802 83.29 154.747 86.256 154.747 89.916 C 154.747 90.005 154.749 90.094 154.752 90.182 L 120.431 90.183 C 120.306 86.506 117.234 83.563 113.465 83.563 C 109.696 83.563 106.624 86.506 106.499 90.183 L 103.301 90.183 L 103.301 85.816 L 104.279 85.809 L 104.279 75.294 L 111.908 61.81 Z M 105.235 75.419 L 120.16 74.009 L 120.16 62.815 L 112.034 62.815 L 105.235 75.419 Z M 117.489 75.531 L 117.489 75.725 C 117.489 75.879 117.613 76.003 117.767 76.003 L 119.849 76.003 C 120.003 76.003 120.127 75.879 120.127 75.725 L 120.127 75.531 C 120.127 75.377 120.003 75.253 119.849 75.253 L 117.767 75.253 C 117.613 75.253 117.489 75.377 117.489 75.531 Z M 104.878 77.697 C 104.876 77.742 104.874 77.787 104.874 77.832 C 104.874 77.878 104.876 77.923 104.878 77.968 L 104.878 79.393 L 105.928 79.393 C 105.958 79.397 105.989 79.398 106.021 79.398 C 106.654 79.398 107.167 78.697 107.167 77.832 C 107.167 76.967 106.654 76.267 106.021 76.267 C 106.001 76.267 105.982 76.267 105.962 76.269 L 105.962 76.253 L 104.878 76.253 L 104.878 77.697 Z" style="fill: rgb(25, 82, 206);"/>
    <path d="M 195 298 m -6.284 0 a 6.284 6.284 0 1 0 12.568 0 a 6.284 6.284 0 1 0 -12.568 0 Z M 195 298 m -3.77 0 a 3.77 3.77 0 0 1 7.54 0 a 3.77 3.77 0 0 1 -7.54 0 Z" transform="matrix(-0.629198, 0.777245, -0.777245, -0.629198, 515.882967, 126.345745)" bx:shape="ring 195 298 3.77 3.77 6.284 6.284 1@34bb3746"/>
    <path d="M 132.854 55.926 L 147.384 56 L 147.393 54.762 L 153.835 54.734 L 153.728 56.031 L 170.236 56 C 173.894 56 176.86 59.937 176.86 64.884 L 176.86 70.037 C 176.86 74.984 173.894 78.995 170.236 78.995 L 132.854 78.995 C 129.196 78.995 126.23 74.984 126.23 70.037 L 126.23 64.884 C 126.23 59.937 129.196 55.926 132.854 55.926 Z M 126.774 65.171 L 126.774 69.996 C 126.774 74.627 129.676 78.382 133.255 78.382 L 169.834 78.382 C 173.414 78.382 176.315 74.627 176.315 69.996 L 176.315 65.171 C 176.315 60.54 173.414 56.785 169.834 56.785 L 136.701 56.785 L 133.255 56.785 C 129.676 56.785 126.774 60.54 126.774 65.171 Z" style="fill: rgb(141, 140, 140);"/>
    <path d="M 129.22 76.757 C 129.22 76.757 130.349 77.795 131.938 77.12 C 133.969 76.258 137.739 77.259 137.739 77.516 C 137.898 77.192 146.159 76.492 145.613 77.643 C 145.614 77.635 148.715 76.27 153.977 77.159 C 156.012 77.503 160.594 78.5 163.601 77.182 C 164.373 76.844 168.842 77.212 170.919 77.192 C 172.159 77.18 173.279 77.248 173.455 77.147 C 174.237 77.26 172.439 77.926 172.439 77.926 C 170.887 78.241 173.869 78.379 170.308 78.399 L 132.409 78.4 C 130.118 78.352 131.76 78.153 130.419 77.829 C 130.419 77.829 128.001 76.995 129.22 76.757 Z" style="fill-rule: evenodd; fill: url(#gradient-1); fill-opacity: 0.9;"/>
  </g>
</svg>