<?xml version="1.0" encoding="utf-8"?>
<svg viewBox="100 50 100 50" width="100px" height="50px" xmlns="http://www.w3.org/2000/svg" xmlns:bx="https://boxy-svg.com">
  <defs>
    <radialGradient id="gradient-1" gradientUnits="userSpaceOnUse" cx="160.389" cy="67.573" r="34.726" gradientTransform="matrix(0.598933, -0.000797, 0.004839, 0.225331, 57.706314, 60.733641)">
      <stop offset="0" style="stop-color: rgba(255, 216, 160, 0.37);"/>
      <stop offset="1" style="stop-color: rgba(185, 121, 82, 0.79)"/>
    </radialGradient>
  </defs>
  <g transform="matrix(1, 0, 0, 1, 5.815124, 0)">
    <path d="M 195 298 m -6.284 0 a 6.284 6.284 0 1 0 12.568 0 a 6.284 6.284 0 1 0 -12.568 0 Z M 195 298 m -3.77 0 a 3.77 3.77 0 0 1 7.54 0 a 3.77 3.77 0 0 1 -7.54 0 Z" transform="matrix(-0.629198, 0.777245, -0.777245, -0.629198, 476.742953, 126.477916)" bx:shape="ring 195 298 3.77 3.77 6.284 6.284 1@34bb3746"/>
    <path d="M 120.915 61.81 L 134.217 61.81 L 134.217 81.333 L 135.116 81.255 L 135.087 80.06 L 174.648 79.979 L 174.683 82.842 L 173.092 82.852 C 173.092 82.852 173.18 90.084 173.182 90.151 L 170.421 90.181 C 170.424 90.093 170.426 89.924 170.426 89.835 C 170.426 86.175 167.25 83.169 163.482 83.169 C 159.714 83.169 156.821 86.175 156.821 89.835 C 156.821 89.924 156.823 90.216 156.826 90.304 L 129.438 90.183 C 129.313 86.506 126.241 83.563 122.472 83.563 C 118.703 83.563 115.631 86.506 115.506 90.183 L 112.308 90.183 L 112.308 85.816 L 113.286 85.809 L 113.286 75.294 L 120.915 61.81 Z M 114.242 75.419 L 129.167 74.009 L 129.167 62.815 L 121.041 62.815 L 114.242 75.419 Z M 126.496 75.531 L 126.496 75.725 C 126.496 75.879 126.62 76.003 126.774 76.003 L 128.856 76.003 C 129.01 76.003 129.134 75.879 129.134 75.725 L 129.134 75.531 C 129.134 75.377 129.01 75.253 128.856 75.253 L 126.774 75.253 C 126.62 75.253 126.496 75.377 126.496 75.531 Z M 113.885 77.697 C 113.883 77.742 113.881 77.787 113.881 77.832 C 113.881 77.878 113.883 77.923 113.885 77.968 L 113.885 79.393 L 114.935 79.393 C 114.965 79.397 114.996 79.398 115.028 79.398 C 115.661 79.398 116.174 78.697 116.174 77.832 C 116.174 76.967 115.661 76.267 115.028 76.267 C 115.008 76.267 114.989 76.267 114.969 76.269 L 114.969 76.253 L 113.885 76.253 L 113.885 77.697 Z" style="fill: rgb(25, 82, 206);"/>
    <path d="M 195 298 m -6.284 0 a 6.284 6.284 0 1 0 12.568 0 a 6.284 6.284 0 1 0 -12.568 0 Z M 195 298 m -3.77 0 a 3.77 3.77 0 0 1 7.54 0 a 3.77 3.77 0 0 1 -7.54 0 Z" transform="matrix(-0.629198, 0.777245, -0.777245, -0.629198, 517.876131, 126.021404)" bx:shape="ring 195 298 3.77 3.77 6.284 6.284 1@34bb3746"/>
    <path d="M 140.527 64.245 L 150.847 64.293 L 150.853 63.478 L 155.428 63.46 L 155.352 64.313 L 167.076 64.293 C 169.674 64.293 171.78 66.887 171.78 70.146 L 171.78 73.539 C 171.78 76.798 169.674 79.44 167.076 79.44 L 140.527 79.44 C 137.93 79.44 135.823 76.798 135.823 73.539 L 135.823 70.146 C 135.823 66.887 137.93 64.245 140.527 64.245 Z M 136.21 70.334 L 136.21 73.512 C 136.21 76.563 138.27 79.036 140.812 79.036 L 166.791 79.036 C 169.333 79.036 171.394 76.563 171.394 73.512 L 171.394 70.334 C 171.394 67.283 169.333 64.81 166.791 64.81 L 143.259 64.81 L 140.812 64.81 C 138.27 64.81 136.21 67.283 136.21 70.334 Z" style="fill: rgb(141, 140, 140);"/>
    <path d="M 136.136 74.753 C 136.136 74.753 138.526 75.524 140.096 74.912 C 141.347 74.425 143.05 75.259 144.197 75.234 C 145.513 75.205 150.793 76.002 152.916 75.01 C 154.406 74.314 157.593 75.093 159.81 75.022 C 161.739 74.96 164.588 75.906 166.714 74.923 C 168.489 74.103 171.386 74.703 171.386 74.703 C 171.386 74.703 171.436 74.674 171.212 75.969 L 170.275 77.424 C 169.038 78.298 169.418 79.039 166.856 79.039 L 141.033 79.221 C 138.829 78.949 139.007 78.818 137.619 78.002 L 136.47 76.15 C 136.336 75.214 136.136 74.753 136.136 74.753 Z" style="fill-rule: evenodd; fill: url(#gradient-1); fill-opacity: 0.9;"/>
  </g>
</svg>