<?xml version="1.0" encoding="utf-8"?>
<svg viewBox="0 0 500 500" xmlns="http://www.w3.org/2000/svg">
  <g>
    <path d="M 348.446 400.085 C 348.446 455.313 303.674 500.085 248.446 500.085 C 193.218 500.085 148.032 455.228 148.032 400 C 148.032 362.141 169.486 329.28 200.51 312.302 L 200.51 0.085 L 300.51 0.085 L 300 213.322 L 312.845 213.425 L 300 213.241 L 300 224.319 L 313.216 224.501 L 300 224.512 L 300 234.402 L 313.401 234.302 L 300 234.457 L 300 244.727 L 313.77 244.417 L 300 244.466 L 300 253.707 L 314.091 253.624 L 300 253.559 L 300 264.158 L 314.264 264.301 L 300 264.295 L 300 274.311 L 314.419 274.16 L 300 274.194 L 300 283.499 L 314.785 283.499 L 300 283.401 L 300 292.507 L 314.791 292.895 L 300 292.699 L 300 303.652 L 315.279 304.094 L 300 303.719 L 300 312.003 C 328.748 329.568 348.446 363.93 348.446 400.085 Z" style="stroke: rgb(0, 0, 0); fill: rgba(235, 0, 11, 0); stroke-width: 4px;"/>
    <path d="M 347.933 400 C 347.545 456.742 302.508 500.685 247.725 500 C 192.942 499.315 148.306 454.928 148.407 400 C 148.476 362.037 170.787 329.215 200 312.711 C 200.014 312.703 199.904 312.624 200 312.627 C 219.884 313.139 289.042 312.939 300 312.7 C 300.073 312.698 299.937 312.679 300 312.717 C 327.945 329.545 348.179 363.965 347.933 400 Z" style="fill: rgb(217, 0, 7); stroke-width: 4px;"/>
  </g>
  <rect id="gauge" x="200.679" y="3000" width="99.321" height="100" rx="0.085" ry="0.088" style="fill: rgb(217, 0, 7);" transform="matrix(-0.99999, 0.004404, -0.004404, -0.99999, 513.888977, 3312.321289)"/>
  <text id="texto" x="326.619" y="199.591" style="white-space: pre; fill: rgb(51, 51, 51); font-size: 24px;">10.000</text>
</svg>