<?xml version="1.0" encoding="utf-8"?>
<svg viewBox="300 300 300 200" width="300px" height="300px" xmlns="http://www.w3.org/2000/svg">
  <defs>
    <pattern id="pattern-0" x="0" y="0" width="25" height="25" patternUnits="userSpaceOnUse" viewBox="0 0 100 100">
      <rect x="0" y="0" width="50" height="100" style="fill: black;"/>
    </pattern>
    <linearGradient id="gradient-1" gradientUnits="userSpaceOnUse" x1="450.196" y1="347.475" x2="450.196" y2="454.973" gradientTransform="matrix(-1, 0.000001, 0, -0.238826, 901.723511, 506.851452)">
      <stop offset="0" style="stop-color: rgba(215, 101, 14, 0.953);"/>
      <stop offset="1" style="stop-color: rgba(228, 83, 78, 0.33);"/>
    </linearGradient>
  </defs>
  <path d="M 334.049 340.25 L 380.754 340.359 L 380.754 336.346 L 378.565 336.346 L 378.565 333.099 L 379.993 333.099 C 379.993 333.099 394.971 327.815 403.149 327.754 C 411.852 327.689 429.186 333.024 429.186 333.024 L 430.774 333.024 C 430.774 333.024 430.834 336.333 430.87 336.286 L 428.585 336.286 L 428.585 341.324 L 572.958 340.423 C 572.958 340.423 572.704 339.305 575.079 342.752 C 585.72 358.198 583.836 406.624 583.836 406.624 C 583.836 406.624 583.828 447.34 576.158 465.987 C 575.329 468.003 572.958 471.752 572.958 471.752 L 541.949 471.808 L 541.949 490.999 L 551.36 490.999 L 551.36 500 L 521.491 500 L 521.491 491.408 L 532.248 490.999 L 532.936 471.476 L 374.378 472.104 L 374.378 490.708 L 384.251 490.708 L 384.277 500 L 355.097 500 L 355.034 490.809 L 364.863 490.708 L 364.863 472.166 L 334.049 472.228 C 334.049 472.228 331.927 471.152 331.366 470.186 C 320.566 451.615 321.586 406.537 321.586 406.537 C 321.586 406.537 319.829 361.321 331.429 343.429 C 331.984 342.573 334.049 340.25 334.049 340.25 Z M 334.049 468.514 L 572.958 467.836 C 572.958 467.836 576.424 452.494 577.477 444.715 C 579.183 432.116 580.375 406.691 580.375 406.691 C 580.375 406.691 581.132 377.421 578.673 363.074 C 577.586 356.732 572.958 344.615 572.958 344.615 L 334.5 344.604 C 334.5 344.604 328.304 358.344 326.85 371.32 C 324.978 388.027 325.279 405.721 325.234 406.537 C 325.226 406.676 324.85 423.357 326.624 439.439 C 328.252 454.186 334.049 468.514 334.049 468.514 Z" style="fill: rgb(114, 114, 114);"/>
  <path d="M 325.181 400 C 325.181 400 330.06 397.09 345.713 394.7 C 353.141 393.567 365.127 392.807 374.445 392.32 C 385.403 391.747 395.725 391.551 402.663 391.571 C 415.92 391.609 433.633 393.805 453.029 393.728 C 472.729 393.65 471.667 391.215 490.954 393.993 C 495.681 394.674 511.915 397.448 530.703 393.2 C 544.733 390.027 581 393.714 581 393.714 C 581 393.714 581.032 403.1 581.302 410.665 C 581.685 421.408 579.346 446.487 579.346 446.487 L 572.748 468.708 L 333.926 468.407 L 326.817 452.315 C 326.817 452.315 324.737 438.061 324.429 429.26 C 324.022 417.626 325.181 400 325.181 400 Z" style="fill-rule: evenodd; fill-opacity: 0.55; fill: url(#gradient-1);"/>
</svg>