<?xml version="1.0" encoding="utf-8"?>
<svg viewBox="300 300 300 200" width="300px" height="300px" xmlns="http://www.w3.org/2000/svg">
  <defs>
    <pattern id="pattern-0" x="0" y="0" width="25" height="25" patternUnits="userSpaceOnUse" viewBox="0 0 100 100">
      <rect x="0" y="0" width="50" height="100" style="fill: black;"/>
    </pattern>
    <linearGradient id="gradient-1" gradientUnits="userSpaceOnUse" x1="450.196" y1="347.475" x2="450.196" y2="454.973" gradientTransform="matrix(-1, 0.000001, 0, -0.393011, 901.723511, 530.476746)">
      <stop offset="0" style="stop-color: rgba(215, 101, 14, 0.953);"/>
      <stop offset="1" style="stop-color: rgba(228, 83, 78, 0.33);"/>
    </linearGradient>
  </defs>
  <path d="M 334.049 340.25 L 380.754 340.359 L 380.754 336.346 L 378.565 336.346 L 378.565 333.099 L 379.993 333.099 C 379.993 333.099 394.971 327.815 403.149 327.754 C 411.852 327.689 429.186 333.024 429.186 333.024 L 430.774 333.024 C 430.774 333.024 430.834 336.333 430.87 336.286 L 428.585 336.286 L 428.585 341.324 L 572.958 340.423 C 572.958 340.423 572.704 339.305 575.079 342.752 C 585.72 358.198 583.836 406.624 583.836 406.624 C 583.836 406.624 583.828 447.34 576.158 465.987 C 575.329 468.003 572.958 471.752 572.958 471.752 L 541.949 471.808 L 541.949 490.999 L 551.36 490.999 L 551.36 500 L 521.491 500 L 521.491 491.408 L 532.248 490.999 L 532.936 471.476 L 374.378 472.104 L 374.378 490.708 L 384.251 490.708 L 384.277 500 L 355.097 500 L 355.034 490.809 L 364.863 490.708 L 364.863 472.166 L 334.049 472.228 C 334.049 472.228 331.927 471.152 331.366 470.186 C 320.566 451.615 321.586 406.537 321.586 406.537 C 321.586 406.537 319.829 361.321 331.429 343.429 C 331.984 342.573 334.049 340.25 334.049 340.25 Z M 334.049 468.514 L 572.958 467.836 C 572.958 467.836 576.424 452.494 577.477 444.715 C 579.183 432.116 580.375 406.691 580.375 406.691 C 580.375 406.691 581.132 377.421 578.673 363.074 C 577.586 356.732 572.958 344.615 572.958 344.615 L 334.5 344.604 C 334.5 344.604 328.304 358.344 326.85 371.32 C 324.978 388.027 325.279 405.721 325.234 406.537 C 325.226 406.676 324.85 423.357 326.624 439.439 C 328.252 454.186 334.049 468.514 334.049 468.514 Z" style="fill: rgb(114, 114, 114);"/>
  <path d="M 325.98 352.255 L 335.061 342.193 C 335.061 342.193 365.127 342.805 374.445 342.003 C 381.53 341.394 389.185 335.606 388.484 327.345 C 388.047 322.201 380.522 358.389 380.342 390.356 C 380.201 415.364 382.391 439.245 382.391 439.245 C 382.391 439.245 386.581 463.24 387.492 483.378 C 388.034 495.341 367.114 500 369.748 500 C 388.925 500 454.119 500 454.119 500 C 454.119 500 437.79 498.675 431.657 493.679 C 418.501 482.963 411.468 492.828 412.857 484.187 C 414.708 472.68 423.627 464.052 423.684 446.795 C 423.726 434.169 429.403 414.192 429.027 400 C 428.03 362.427 417.904 325.611 416.838 329.206 C 414.304 337.749 425.332 342.19 425.332 342.19 L 491.22 342.627 L 530.703 342.387 L 578.603 343.86 C 578.603 343.86 581.032 359.744 581.302 372.193 C 581.685 389.871 580.701 433.398 580.701 433.398 L 572.748 467.708 L 333.926 469.472 L 325.914 441.184 C 325.914 441.184 324.737 417.276 324.429 402.793 C 324.022 383.647 325.98 352.255 325.98 352.255 Z" style="fill-rule: evenodd; fill-opacity: 0.55; fill: url(#gradient-1);"/>
  <path style="fill: rgb(216, 216, 216); stroke: rgb(0, 0, 0);"/>
  <path d="M 517.975 400.766 C 518.541 400.524 519.698 400.976 519.698 400.976 L 521.47 402.193 L 522.872 404.904 L 537.847 414.295 L 551.359 405.597 L 552.761 402.887 L 554.532 401.669 C 554.532 401.669 555.69 401.216 556.256 401.459 C 557.486 401.987 557.743 404.138 557.743 404.138 C 557.743 404.138 559.877 405.7 559.731 406.449 C 559.53 407.484 559.401 409.051 558.012 409.439 C 556.004 410 552.423 409.445 552.423 409.445 L 540.295 415.831 L 540.754 416.119 L 554.356 423.23 C 554.356 423.23 555.97 423.556 557.443 423.399 C 560.313 423.093 559.86 423.049 560.438 423.416 C 561.527 424.108 561.948 426.039 561.948 426.039 C 562.306 426.567 560.363 426.347 559.448 427.241 C 558.599 428.069 559.551 429.161 558.919 429.978 C 558.084 431.058 557.812 430.885 556.004 430.451 C 555.17 430.252 554.632 430.333 554.134 429.151 C 553.655 428.01 552.531 427.386 551.301 425.945 L 537.404 417.353 L 537.102 417.511 L 522.93 426.638 C 521.7 428.079 520.576 428.703 520.096 429.844 C 519.598 431.025 519.06 430.945 518.226 431.144 C 516.419 431.578 516.147 431.752 515.312 430.67 C 514.679 429.853 515.632 428.762 514.783 427.934 C 513.867 427.04 511.925 427.259 512.282 426.732 C 512.282 426.732 512.704 424.8 513.793 424.109 C 514.371 423.742 513.917 423.786 516.789 424.092 C 518.261 424.249 519.874 423.923 519.874 423.923 L 534.946 416.164 L 535.2 416 L 521.808 408.752 C 521.808 408.752 518.226 409.307 516.22 408.746 C 514.83 408.358 514.7 406.791 514.498 405.756 C 514.354 405.007 516.488 403.445 516.488 403.445 C 516.488 403.445 516.745 401.294 517.975 400.766 Z M 550.945 390.393 C 550.945 392.051 550.574 393.518 550.132 394.932 C 549.911 395.637 549.637 396.035 549.415 396.752 C 549.298 397.129 550.804 397.194 550.364 398.01 C 549.6 399.421 548.471 402.85 546.56 402.723 C 545.524 402.655 543.439 401.811 542.976 403.361 C 542.842 403.805 543.05 406.18 542.819 406.374 C 542.624 406.539 541.743 405.805 541.692 405.89 C 541.625 406 542.192 407.004 542.108 407.107 C 541.789 407.5 541.463 407.624 540.97 407.918 C 540.866 407.98 540.117 406.751 540.009 406.809 C 539.893 406.868 540.255 408.316 540.136 408.372 C 539.664 408.59 539.33 408.662 538.851 408.785 C 538.53 408.866 538.268 407.101 537.94 407.144 C 537.755 407.168 537.777 408.936 537.594 408.948 C 537.119 408.981 536.652 408.971 536.209 408.925 C 535.979 408.901 536.373 407.319 536.152 407.276 C 535.901 407.229 535.157 408.715 534.923 408.644 C 534.462 408.505 534.265 408.189 533.895 407.969 C 533.808 407.918 534.413 406.837 534.327 406.789 C 533.933 406.571 533.329 407.569 533.055 407.281 C 531.867 406.024 531.904 406.859 531.968 403.309 C 531.99 402.06 529.016 402.326 527.582 402.253 C 526.526 402.2 525.802 400.734 524.93 399.794 C 524.69 399.536 524.628 397.389 524.628 397.389 L 524.642 397.094 L 525.546 396.064 C 524.943 394.175 524.148 392.483 524.148 390.333 C 524.148 388.062 524.304 385.278 524.976 383.38 C 526.793 378.243 531.673 376.228 537.711 376.228 C 543.223 376.228 547.421 378.683 549.608 382.933 C 550.703 385.058 550.945 387.587 550.945 390.393 Z M 535.412 394.821 C 535.101 393.48 533.531 392.4 532.367 392.063 C 531.696 391.868 531.044 392.455 530.291 392.455 C 529.525 392.455 528.904 392.297 528.285 392.665 C 527.028 393.415 526.938 394.312 526.932 395.915 C 526.93 396.538 526.884 397.106 527.021 397.593 C 527.208 398.262 527.595 398.75 527.595 398.75 C 527.782 399.481 529.572 399.61 530.487 399.61 C 531.668 399.61 532.551 399.225 533.258 398.64 C 533.982 398.039 534.523 397.226 535.151 396.117 C 535.284 395.879 535.475 395.095 535.412 394.821 Z M 539.692 396.234 C 540.333 397.343 540.887 398.156 541.628 398.757 C 542.351 399.342 543.254 399.728 544.462 399.728 C 545.398 399.728 546.774 399.799 546.965 399.067 C 546.965 399.067 547.817 398.379 548.009 397.71 C 548.149 397.223 548.203 396.21 548.1 395.596 C 547.833 393.993 548.001 393.532 546.715 392.783 C 546.081 392.414 545.447 392.572 544.663 392.572 C 543.894 392.572 543.225 391.985 542.539 392.18 C 541.348 392.517 539.743 393.598 539.425 394.938 C 539.36 395.212 539.555 395.996 539.692 396.234 Z M 537.173 398.264 C 536.09 398.655 535.414 400.689 534.967 401.533 C 534.693 402.05 534.838 403.018 535.521 403.566 C 535.821 403.805 536.489 403.978 536.897 403.588 C 537.156 403.342 537.314 402.604 537.464 402.765 C 537.745 403.068 537.732 403.45 537.799 403.524 C 538.145 403.913 538.988 403.864 539.257 403.65 C 539.879 403.155 540.081 402.164 539.83 401.533 C 539.376 400.395 538.255 397.873 537.173 398.264 Z" style="stroke: rgb(0, 0, 0);"/>
  <g transform="matrix(1, 0, 0, 1, 20.190002, 9.094526)">
    <rect x="422.22" y="367.962" width="57.59" height="56.605" style="fill: rgb(217, 75, 0); stroke: rgb(0, 0, 0);"/>
    <path d="M 440.678 415.214 L 462.828 415.214 L 462.828 415.952 L 440.678 415.952 Z M 441.007 386.72 C 441.165 386.62 442.43 389.227 443.487 389.214 C 446.073 389.182 445.341 379.134 445.341 379.134 L 448.538 381.583 L 449.91 379.922 L 450.324 373.501 C 450.39 374.433 451 375.596 451.962 377.111 C 452.721 378.307 454.043 378.757 454.678 379.671 C 455.93 381.474 456.393 383.655 456.449 383.51 C 456.449 383.51 457.178 383.669 457.75 381.864 C 457.894 381.41 458.207 380.51 458.207 380.51 C 458.207 380.51 460.504 384.04 461.081 385.669 C 461.774 387.624 462.574 391.71 462.574 391.71 L 464.663 389.376 L 466.416 393.436 L 465.275 401.429 L 467.188 400.595 C 466.286 401.778 466.9 406.94 462.906 409.78 C 459.119 412.473 455.646 413.199 452.834 412.38 C 452.834 412.38 457.532 409.944 459.226 407.993 C 461.163 405.762 460.85 401.549 460.85 401.549 L 459.456 401.874 C 459.456 401.874 459.568 400.65 459.45 400.025 C 459.319 399.331 458.679 398.068 458.679 398.068 L 456.43 399.866 C 457.383 395.551 453.314 391.89 453.141 392.293 L 452.842 396.318 C 452.399 399.271 450.351 401.11 450.351 401.11 L 449.706 399.194 L 448.329 397.57 C 448.329 397.57 447.435 398.835 447.16 399.715 C 447.032 400.126 446.928 400.876 446.893 401.305 C 446.786 402.605 446.75 405.216 446.75 405.216 C 446.394 404.858 443.996 397.919 443.962 397.542 C 443.9 397.661 443.443 398.548 443.196 399.453 C 442.889 400.579 442.784 401.785 442.203 402.409 C 441.841 402.797 441.627 401.72 441.359 402.175 C 439.448 405.419 445.673 412.615 445.673 412.615 C 445.673 412.615 441.61 411.964 439.547 409.788 C 438.068 408.228 437.528 406.241 437.17 404.655 C 436.426 401.357 436.802 394.712 436.802 394.712 C 436.802 394.712 437.745 396.944 439.547 394.755 C 441.406 392.496 441.007 386.72 441.007 386.72 Z M 450.324 373.501 C 450.309 373.294 450.321 373.099 450.362 372.914 Z"/>
  </g>
</svg>