<?xml version="1.0" encoding="utf-8"?>
<svg viewBox="300 300 300 200" width="300px" height="300px" xmlns="http://www.w3.org/2000/svg">
  <defs>
    <pattern id="pattern-0" x="0" y="0" width="25" height="25" patternUnits="userSpaceOnUse" viewBox="0 0 100 100">
      <rect x="0" y="0" width="50" height="100" style="fill: black;"/>
    </pattern>
    <linearGradient id="gradient-1" gradientUnits="userSpaceOnUse" x1="450.196" y1="347.475" x2="450.196" y2="454.973" gradientTransform="matrix(-0.988602, 0.000001, 0, -0.043334, 895.142273, 475.914392)">
      <stop offset="0" style="stop-color: rgba(215, 101, 14, 0.953);"/>
      <stop offset="1" style="stop-color: rgba(228, 83, 78, 0.33);"/>
    </linearGradient>
  </defs>
  <path d="M 334.049 340.25 L 380.754 340.359 L 380.754 336.346 L 378.565 336.346 L 378.565 333.099 L 379.993 333.099 C 379.993 333.099 394.971 327.815 403.149 327.754 C 411.852 327.689 429.186 333.024 429.186 333.024 L 430.774 333.024 C 430.774 333.024 430.834 336.333 430.87 336.286 L 428.585 336.286 L 428.585 341.324 L 572.958 340.423 C 572.958 340.423 572.704 339.305 575.079 342.752 C 585.72 358.198 583.836 406.624 583.836 406.624 C 583.836 406.624 583.828 447.34 576.158 465.987 C 575.329 468.003 572.958 471.752 572.958 471.752 L 541.949 471.808 L 541.949 490.999 L 551.36 490.999 L 551.36 500 L 521.491 500 L 521.491 491.408 L 532.248 490.999 L 532.936 471.476 L 374.378 472.104 L 374.378 490.708 L 384.251 490.708 L 384.277 500 L 355.097 500 L 355.034 490.809 L 364.863 490.708 L 364.863 472.166 L 334.049 472.228 C 334.049 472.228 331.927 471.152 331.366 470.186 C 320.566 451.615 321.586 406.537 321.586 406.537 C 321.586 406.537 319.829 361.321 331.429 343.429 C 331.984 342.573 334.049 340.25 334.049 340.25 Z M 334.049 468.514 L 572.958 467.836 C 572.958 467.836 576.424 452.494 577.477 444.715 C 579.183 432.116 580.375 406.691 580.375 406.691 C 580.375 406.691 581.132 377.421 578.673 363.074 C 577.586 356.732 572.958 344.615 572.958 344.615 L 334.5 344.604 C 334.5 344.604 328.304 358.344 326.85 371.32 C 324.978 388.027 325.279 405.721 325.234 406.537 C 325.226 406.676 324.85 423.357 326.624 439.439 C 328.252 454.186 334.049 468.514 334.049 468.514 Z" style="fill: rgb(114, 114, 114);"/>
  <path d="M 327.301 456.356 C 327.301 456.356 329.995 455.998 345.469 455.565 C 352.813 455.36 372.294 457.317 372.294 457.317 C 372.294 457.317 399.651 456.589 406.51 456.593 C 419.616 456.6 431.973 456.669 446.823 456.564 C 460.946 456.465 469.988 455.268 489.055 455.773 C 493.728 455.896 519.782 456.736 538.355 455.965 C 552.226 455.389 578.075 455.386 578.075 455.386 L 573.113 469.241 L 333.817 468.939 L 327.301 456.356 Z" style="fill-rule: evenodd; fill-opacity: 0.55; fill: url(#gradient-1);"/>
</svg>