<?xml version="1.0" encoding="utf-8"?>
<svg viewBox="300 300 300 200" width="300px" height="300px" xmlns="http://www.w3.org/2000/svg">
  <defs>
    <pattern id="pattern-0" x="0" y="0" width="25" height="25" patternUnits="userSpaceOnUse" viewBox="0 0 100 100">
      <rect x="0" y="0" width="50" height="100" style="fill: black;"/>
    </pattern>
  </defs>
  <path d="M 334.049 340.25 L 380.754 340.359 L 380.754 336.346 L 378.565 336.346 L 378.565 333.099 L 379.993 333.099 C 379.993 333.099 394.971 327.815 403.149 327.754 C 411.852 327.689 429.186 333.024 429.186 333.024 L 430.774 333.024 C 430.774 333.024 430.834 336.333 430.87 336.286 L 428.585 336.286 L 428.585 341.324 L 572.958 340.423 C 572.958 340.423 572.704 339.305 575.079 342.752 C 585.72 358.198 583.836 406.624 583.836 406.624 C 583.836 406.624 583.828 447.34 576.158 465.987 C 575.329 468.003 572.958 471.752 572.958 471.752 L 541.949 471.808 L 541.949 490.999 L 551.36 490.999 L 551.36 500 L 521.491 500 L 521.491 491.408 L 532.248 490.999 L 532.936 471.476 L 374.378 472.104 L 374.378 490.708 L 384.251 490.708 L 384.277 500 L 355.097 500 L 355.034 490.809 L 364.863 490.708 L 364.863 472.166 L 334.049 472.228 C 334.049 472.228 331.927 471.152 331.366 470.186 C 320.566 451.615 321.586 406.537 321.586 406.537 C 321.586 406.537 319.829 361.321 331.429 343.429 C 331.984 342.573 334.049 340.25 334.049 340.25 Z M 334.049 468.514 L 572.958 467.836 C 572.958 467.836 576.424 452.494 577.477 444.715 C 579.183 432.116 580.375 406.691 580.375 406.691 C 580.375 406.691 581.132 377.421 578.673 363.074 C 577.586 356.732 572.958 344.615 572.958 344.615 L 334.5 344.604 C 334.5 344.604 328.304 358.344 326.85 371.32 C 324.978 388.027 325.279 405.721 325.234 406.537 C 325.226 406.676 324.85 423.357 326.624 439.439 C 328.252 454.186 334.049 468.514 334.049 468.514 Z" style="fill: rgb(114, 114, 114);"/>
  <path d="M 334.887 343.942 L 572.704 343.942 C 572.704 343.942 578.105 356.795 579.664 368.049 C 581.114 378.511 580.693 400 580.693 400 C 580.693 400 580.935 424.14 579.525 436.095 C 578.252 446.891 572.97 468.043 572.97 468.043 L 333.556 468.842 C 333.556 468.842 327.339 450.134 326.205 436.47 C 325.174 424.048 324.767 400 324.767 400 C 324.767 400 325.11 380.629 326.514 370.928 C 328.403 357.873 334.887 343.942 334.887 343.942 Z" style="fill: rgb(236, 0, 3);"/>
  <path style="fill: rgb(216, 216, 216); stroke: rgb(0, 0, 0);" d="M 438.775 389.921" transform="matrix(0.999996, 0.002701, -0.002701, 0.999996, 1.054778, -1.183709)"/>
  <g transform="matrix(0.923932, 0, 0, 0.798644, 36.014668, 84.071167)">
    <path d="M 506.353 357.5 C 519.3 372.208 563.906 437.731 558.204 437.843 C 542.71 438.146 471.867 439.503 460.506 437.996 C 455.196 437.292 503.977 354.8 506.353 357.5 Z M 480.115 425.97 C 486.671 426.873 527.557 426.067 536.498 425.887 C 539.789 425.821 514.039 386.586 506.567 377.778 C 505.194 376.162 477.05 425.548 480.115 425.97 Z" style="stroke-dashoffset: 2px; stroke: rgb(0, 0, 0); fill: rgb(169, 0, 11);"/>
    <text style="fill: rgb(208, 197, 43); font-size: 50px; stroke: rgb(0, 0, 0); white-space: pre;" x="500.007" y="423.444">!</text>
  </g>
  <path d="M 362.901 403.53 C 363.767 403.17 365.54 403.842 365.54 403.842 L 368.253 405.653 L 370.4 409.684 L 393.333 423.651 L 414.024 410.714 L 416.171 406.684 L 418.884 404.872 C 418.884 404.872 420.657 404.2 421.523 404.561 C 423.407 405.346 423.8 408.545 423.8 408.545 C 423.8 408.545 427.069 410.868 426.846 411.981 C 426.537 413.521 426.34 415.85 424.212 416.428 C 421.138 417.263 415.654 416.438 415.654 416.438 L 397.081 425.934 L 397.784 426.362 L 418.615 436.938 C 418.615 436.938 421.085 437.423 423.341 437.19 C 427.737 436.734 427.042 436.669 427.928 437.215 C 429.596 438.243 430.241 441.115 430.241 441.115 C 430.789 441.901 427.813 441.574 426.412 442.903 C 425.112 444.135 426.57 445.758 425.602 446.973 C 424.323 448.58 423.906 448.322 421.138 447.677 C 419.861 447.381 419.037 447.501 418.275 445.744 C 417.54 444.047 415.819 443.12 413.936 440.975 L 392.654 428.198 L 392.192 428.434 L 370.488 442.006 C 368.606 444.15 366.884 445.077 366.149 446.774 C 365.387 448.531 364.563 448.411 363.286 448.708 C 360.518 449.353 360.101 449.611 358.822 448.003 C 357.854 446.788 359.313 445.165 358.013 443.933 C 356.611 442.604 353.635 442.931 354.183 442.146 C 354.183 442.146 354.829 439.273 356.496 438.246 C 357.382 437.7 356.687 437.765 361.084 438.22 C 363.339 438.454 365.81 437.968 365.81 437.968 L 388.891 426.429 L 389.28 426.186 L 368.771 415.407 C 368.771 415.407 363.286 416.232 360.213 415.398 C 358.085 414.82 357.887 412.49 357.578 410.951 C 357.355 409.838 360.624 407.515 360.624 407.515 C 360.624 407.515 361.017 404.316 362.901 403.53 Z M 413.39 388.103 C 413.39 390.569 412.823 392.751 412.145 394.853 C 411.807 395.901 411.388 396.494 411.048 397.559 C 410.869 398.12 413.175 398.218 412.5 399.431 C 411.331 401.53 409.602 406.629 406.675 406.441 C 405.089 406.339 401.897 405.085 401.186 407.388 C 400.982 408.05 401.3 411.582 400.947 411.87 C 400.648 412.115 399.299 411.024 399.22 411.151 C 399.118 411.314 399.987 412.806 399.858 412.96 C 399.37 413.545 398.87 413.728 398.116 414.166 C 397.956 414.258 396.809 412.43 396.643 412.516 C 396.466 412.606 397.02 414.758 396.838 414.841 C 396.114 415.165 395.603 415.273 394.87 415.455 C 394.378 415.576 393.977 412.951 393.475 413.016 C 393.192 413.052 393.226 415.68 392.945 415.698 C 392.218 415.746 391.502 415.733 390.824 415.663 C 390.473 415.627 391.075 413.276 390.736 413.212 C 390.352 413.141 389.213 415.351 388.855 415.246 C 388.149 415.039 387.847 414.57 387.28 414.242 C 387.148 414.166 388.073 412.559 387.942 412.488 C 387.339 412.163 386.413 413.648 385.995 413.218 C 384.175 411.35 384.232 412.591 384.329 407.312 C 384.363 405.454 379.808 405.849 377.612 405.741 C 375.996 405.662 374.888 403.482 373.551 402.084 C 373.185 401.701 373.089 398.508 373.089 398.508 L 373.111 398.069 L 374.496 396.538 C 373.572 393.728 372.354 391.211 372.354 388.014 C 372.354 384.636 372.594 380.496 373.622 377.674 C 376.405 370.034 383.877 367.038 393.124 367.038 C 401.565 367.038 407.995 370.689 411.344 377.008 C 413.019 380.169 413.39 383.93 413.39 388.103 Z M 389.603 394.689 C 389.127 392.695 386.724 391.088 384.941 390.587 C 383.914 390.297 382.914 391.17 381.762 391.17 C 380.588 391.17 379.638 390.935 378.69 391.483 C 376.765 392.597 376.626 393.931 376.617 396.316 C 376.614 397.242 376.543 398.087 376.753 398.811 C 377.04 399.806 377.632 400.531 377.632 400.531 C 377.918 401.619 380.661 401.811 382.062 401.811 C 383.871 401.811 385.223 401.239 386.305 400.368 C 387.414 399.475 388.243 398.265 389.203 396.615 C 389.408 396.262 389.7 395.095 389.603 394.689 Z M 396.158 396.789 C 397.14 398.439 397.988 399.649 399.123 400.542 C 400.23 401.413 401.613 401.985 403.463 401.985 C 404.897 401.985 407.004 402.092 407.296 401.004 C 407.296 401.004 408.601 399.98 408.895 398.985 C 409.109 398.261 409.191 396.754 409.034 395.841 C 408.625 393.456 408.882 392.771 406.913 391.657 C 405.943 391.109 404.971 391.344 403.77 391.344 C 402.592 391.344 401.569 390.471 400.518 390.761 C 398.694 391.262 396.236 392.869 395.749 394.863 C 395.65 395.269 395.949 396.436 396.158 396.789 Z M 392.3 399.809 C 390.643 400.39 389.607 403.416 388.923 404.67 C 388.503 405.439 388.725 406.88 389.77 407.693 C 390.231 408.05 391.252 408.307 391.878 407.726 C 392.274 407.361 392.516 406.264 392.746 406.504 C 393.176 406.953 393.157 407.521 393.259 407.632 C 393.788 408.209 395.08 408.137 395.492 407.819 C 396.445 407.084 396.754 405.609 396.368 404.67 C 395.674 402.977 393.957 399.228 392.3 399.809 Z" style="stroke: rgb(0, 0, 0);"/>
</svg>