<?xml version="1.0" encoding="utf-8"?>
<svg viewBox="0 0 500 700" xmlns="http://www.w3.org/2000/svg">
  <g transform="matrix(1, 0, 0, 1.387721, -101.183762, -0.019921)">
    <path d="M 362.616 432.378 C 358.878 479.506 306.259 505.485 254.682 504.438 C 203.105 503.391 148.421 473.962 144.923 428.848 C 141.715 387.471 177.01 362.903 200.616 360.317 L 200.51 0.085 L 300.51 0.085 L 301.184 36.058 L 310.37 36.077 L 301.184 36.124 L 301.184 72.075 L 315.641 72.075 L 301.184 72.075 L 301.184 108.414 L 310.407 108.364 L 301.184 108.479 L 301.184 144.136 L 315.693 144.136 L 301.184 144.136 L 301.184 180.5 L 311.342 180.405 L 301.184 180.25 L 301.184 216.196 L 316.34 216.196 L 301.184 216.196 L 301.184 252.591 L 313.781 252.62 L 301.184 252.68 C 301.184 252.68 301.025 288.257 301.184 288.257 L 317.872 288.257 L 301.184 288.257 L 301.184 324.35 L 311.854 324.375 L 301.184 324.433 L 302.362 352.416 L 312.804 352.311 L 302.362 352.368 L 302.362 358.359 C 314.324 357.886 366.506 383.34 362.616 432.378 Z" style="stroke: rgb(0, 0, 0); fill: rgba(235, 0, 11, 0); stroke-width: 4px;"/>
    <path d="M 360.521 432.378 C 354.067 485.356 298.492 504.745 246.542 501.569 C 194.592 498.393 153.465 469.345 147.148 432.378 C 140.79 395.17 168.597 367.787 203.432 359.025 C 203.448 359.021 203.342 360.314 203.438 360.317 C 223.322 360.829 299.961 360.335 300.616 360.317 C 326.104 359.622 365.164 394.266 360.521 432.378 Z" style="stroke-width: 4px; fill: rgba(220, 213, 22, 0.53);"/>
  </g>
  <rect id="gauge" x="201.497" y="14999.999" width="99.726" height="500" style="fill: rgba(220, 213, 22, 0.53); stroke-opacity: 0; stroke: rgb(220, 213, 22);" rx="0.025" ry="0.025" transform="matrix(-0.999993, 0.003724, -0.003724, -0.999993, 457.429565, 15498.788086)"/>
  <text id="texto" x="226.635" y="308.18" style="white-space: pre; fill: rgb(51, 51, 51); font-size: 24px;" transform="matrix(2.362862, 0, 0, 2.419106, -277.698151, -427.83905)">50.000</text>
</svg>